<svg xmlns="http://www.w3.org/2000/svg" xmlns:xlink="http://www.w3.org/1999/xlink" xml:lang="en" height="188.84pt" width="589.232pt" viewBox="-33.83199999999998 -53.2 589.232 188.84"><path d="M 546.4458424826275 -1.1363592362932464 C 450.8699666859168 -26.07999730980487 422.1 -36.0 36.0 -36.0" style="stroke:#D32F2F;fill:none;stroke-width:2;stroke-dasharray:-;stroke-linecap:round;" /><path d="M 548.8648188811678 -0.5050485494637201 L 541.1825975762206 1.2106075413115887 L 543.0007723542896 -5.756044486484375 Z" style="stroke:#D32F2F;fill:#d32f2f;stroke-linecap:butt;stroke-linejoin:miter;" /><path d="M 0.0,-0.0 L 50.625,-0.0 M 57.375,-0.0 L 108.0,-0.0" style="stroke:black;fill:none;stroke-width:2.0;stroke-dasharray:-;stroke-linecap:round;stroke-linejoin:round;" /><path d="M 50.625,-13.5 L 50.625,13.5" style="stroke:black;fill:none;stroke-width:2.0;stroke-dasharray:-;stroke-linecap:round;stroke-linejoin:round;" /><path d="M 57.375,-6.75 L 57.375,6.75" style="stroke:black;fill:none;stroke-width:2.0;stroke-dasharray:-;stroke-linecap:round;stroke-linejoin:round;" /><path d="M 108.0,-0.0 L 126.0,-0.0 L 144.0,-0.0" style="stroke:black;fill:none;stroke-width:2.0;stroke-dasharray:-;stroke-linecap:round;stroke-linejoin:round;" /><path d="M 144.0,-0.0 L 180.0,-0.0 L 180.0,-9.0 L 216.0,-9.0 L 216.0,9.0 L 180.0,9.0 L 180.0,-0.0 M 216.0,-0.0 L 252.0,-0.0" style="stroke:black;fill:none;stroke-width:2.0;stroke-dasharray:-;stroke-linecap:round;stroke-linejoin:round;" /><path d="M 144.0,-0.0 L 143.99999999999997,50.76 M 153.0,50.76 L 134.99999999999997,50.76 M 153.0,57.239999999999995 L 134.99999999999997,57.239999999999995 M 143.99999999999997,57.239999999999995 L 143.99999999999997,108.0" style="stroke:black;fill:none;stroke-width:2.0;stroke-dasharray:-;stroke-linecap:round;stroke-linejoin:round;" /><path d="M 143.99999999999997,108.0 L 143.99999999999997,122.39999999999999 L 134.99999999999997,122.39999999999999 L 153.0,122.39999999999999 M 137.7,126.72 L 150.29999999999998,126.72 M 142.2,131.04 L 145.79999999999998,131.04" style="stroke:black;fill:none;stroke-width:2.0;stroke-dasharray:-;stroke-linecap:round;stroke-linejoin:round;" /><path d="M 252.0,-0.0 L 266.40000000000003,-0.0 L 280.8,-0.0" style="stroke:black;fill:none;stroke-width:2.0;stroke-dasharray:-;stroke-linecap:round;stroke-linejoin:round;" /><path d="M 280.8,-0.0 L 280.8,50.76 M 289.79999999999995,50.76 L 271.8,50.76 M 289.79999999999995,57.239999999999995 L 271.8,57.239999999999995 M 280.8,57.239999999999995 L 280.79999999999995,108.0" style="stroke:black;fill:none;stroke-width:2.0;stroke-dasharray:-;stroke-linecap:round;stroke-linejoin:round;" /><path d="M 280.79999999999995,108.0 L 280.79999999999995,122.39999999999999 L 271.79999999999995,122.39999999999999 L 289.79999999999995,122.39999999999999 M 274.49999999999994,126.72 L 287.09999999999997,126.72 M 278.99999999999994,131.04 L 282.59999999999997,131.04" style="stroke:black;fill:none;stroke-width:2.0;stroke-dasharray:-;stroke-linecap:round;stroke-linejoin:round;" /><path d="M 280.8,-0.0 L 316.8,-0.0 L 316.8,-9.0 L 352.8,-9.0 L 352.8,9.0 L 316.8,9.0 L 316.8,-0.0 M 352.8,-0.0 L 388.8,-0.0" style="stroke:black;fill:none;stroke-width:2.0;stroke-dasharray:-;stroke-linecap:round;stroke-linejoin:round;" /><path d="M 388.8,-0.0 L 424.8,-0.0 L 424.8331661898196,-1.4629117898821524 L 424.934069645943,-2.9641865610386833 L 425.1037405728842,-4.472180158066942 L 425.34175968131746,-5.955106804873576 L 425.6462670259366,-7.381709091313654 L 426.01400120973705,-8.721916822831705 L 426.4403681283623,-9.947480845746602 L 426.9195378055101,-11.032568488290245 L 427.44456727828276,-11.954308066580474 L 428.0075469422807,-12.693270978327698 L 428.5997672717497,-13.23388122261231 L 429.21190240062265,-13.564743713797021 L 429.8342066948997,-13.67888446931109 L 430.4567201729767,-13.573897608582442 L 431.0694784440338,-13.251996064646365 L 431.6627227393614,-12.719964939521738 L 432.2271056095452,-11.989018486539099 L 432.7538879517838,-11.074563734174237 L 433.23512321436135,-9.99587573376919 L 433.66382489557736,-8.775691276330901 L 434.0341138065592,-7.439729642122323 L 434.34134199392463,-6.016150484777238 L 434.58219071022745,-4.534960276760572 L 434.75474036714854,-3.027379827229907 L 434.8585109969434,-1.5251862038769899 L 434.8944723692938,-0.06004292984598013 L 434.86502355031774,1.3371674260347168 L 434.77394233459734,2.6369941979168843 L 434.62630561610524,3.8120393896733544 L 434.4283823764673,4.837535175075715 L 434.1875015461743,5.69186595875029 L 433.91189752399004,6.357023993812044 L 433.61053661072697,6.818988952581326 L 433.29292801585035,7.068023449719525 L 432.96892342055173,7.098878288690827 L 432.6485093221367,6.910903105326 L 432.34159653673424,6.508060076322154 L 432.05781129722766,5.898840403728107 L 431.8062923496852,5.096085335771232 L 431.59549832513125,4.116715496582933 L 431.43302944691106,2.981374230062255 L 431.32546733173655,1.7139924755436025 L 431.27823626111643,0.34128434690208137 L 431.2954888473177,-1.1078159526239852 L 431.38001850381437,-2.6027640110766783 L 431.5332005651859,-4.11204902870804 L 431.7549632975535,-5.603858008615433 L 432.04378941060054,-7.046746317145997 L 432.3967480393064,-8.410300479870518 L 432.80955652127744,-9.665779242586769 L 433.2766706675201,-10.786719384946677 L 433.791401623912,-11.749493517252224 L 434.34605686014226,-12.533808103073127 L 434.9321023143297,-13.1231312102707 L 435.5403422756038,-13.505040974210411 L 436.16111321304874,-13.671487428189241 L 436.7844874654478,-13.61896218216619 L 437.4004824984159,-13.348572373275408 L 437.99927131815986,-12.866017329378945 L 438.5713896067242,-12.18146843754915 L 439.1079352126865,-11.309354749635805 L 439.6007557923997,-10.26805884396456 L 440.0426206466433,-9.07952935385177 L 440.4273731306779,-7.768818330133402 L 440.7500604251752,-6.363553189268712 L 441.00703793268633,-4.893354377397084 L 441.19604609916064,-3.389211024935878 L 441.31625804125645,-1.8828277517905412 L 441.36829697554504,-0.4059563913410801 L 441.35422308223355,1.0102732807460622 L 441.2774900802942,2.33600970585525 L 441.14287242931823,3.543308759256509 L 440.95636469254816,4.606722761685998 L 440.7250551823323,5.503836870373592 L 440.45697655132807,6.2157415433655805 L 440.16093647871986,6.727431118449524 L 439.846332020281,7.028120105358771 L 439.52295153544316,7.111470524389388 L 439.2007683663929,6.975725499542818 L 438.8897306180669,6.623746290292616 L 438.59955147010197,6.062951981412611 L 438.33950444058615,5.305163102095771 L 438.11822791707897,4.36635247058977 L 437.94354307503403,3.266308516093439 L 437.82228902157414,2.0282181744793215 L 437.76017863948937,0.6781781496455073 L 437.7616781700064,-0.7553551577767366 L 437.8299130725054,-2.2421654598523206 L 437.9666021454926,-3.7509134860112714 L 438.17202129743777,-5.2497975581594165 L 438.44499773112346,-6.707223912502883 L 438.78293466408786,-8.092472638915398 L 439.1818660640995,-9.376345201051642 L 439.63654024594007,-10.531779888654436 L 440.1405305674248,-11.53442222943491 L 440.68637089138997,-12.363138337275407 L 441.265712958353,-13.000460376304007 L 441.8695023527155,-13.432954751264193 L 442.4881693534579,-13.651505263392778 L 443.11183064654205,-13.651505263392785 L 443.7304976472846,-13.432954751264207 L 444.33428704164703,-13.000460376304039 L 444.9136291086101,-12.36313833727544 L 445.4594694325752,-11.534422229434949 L 445.96345975405995,-10.5317798886545 L 446.41813393590047,-9.376345201051727 L 446.8170653359122,-8.092472638915476 L 447.1550022688766,-6.707223912502948 L 447.4279787025623,-5.249797558159501 L 447.6333978545075,-3.7509134860113393 L 447.7700869274946,-2.24216545985237 L 447.8383218299936,-0.7553551577768027 L 447.83982136051065,0.6781781496454269 L 447.77771097842594,2.028218174479232 L 447.656456924966,3.2663085160934013 L 447.4817720829211,4.36635247058971 L 447.26049555941387,5.305163102095713 L 447.00044852989805,6.062951981412591 L 446.7102693819332,6.623746290292597 L 446.39923163360714,6.975725499542803 L 446.077048464557,7.111470524389387 L 445.75366797971907,7.028120105358778 L 445.4390635212802,6.727431118449542 L 445.143023448672,6.215741543365615 L 444.8749448176677,5.5038368703736475 L 444.64363530745186,4.60672276168603 L 444.4571275706818,3.5433087592565595 L 444.32250991970585,2.3360097058553233 L 444.2457769177665,1.010273280746108 L 444.231703024455,-0.405956391341014 L 444.28374195874363,-1.882827751790455 L 444.4039539008394,-3.389211024935773 L 444.59296206731375,-4.893354377397035 L 444.8499395748249,-6.3635531892686465 L 445.1726268693222,-7.768818330133325 L 445.55737935335674,-9.079529353851685 L 445.9992442076003,-10.268058843964523 L 446.49206478731355,-11.309354749635762 L 447.0286103932758,-12.181468437549107 L 447.60072868184017,-12.866017329378902 L 448.1995175015842,-13.348572373275395 L 448.8155125345523,-13.618962182166182 L 449.43888678695123,-13.671487428189247 L 450.05965772439623,-13.505040974210422 L 450.66789768567037,-13.12313121027072 L 451.2539431398577,-12.533808103073168 L 451.808598376088,-11.749493517252287 L 452.32332933247994,-10.78671938494671 L 452.79044347872264,-9.665779242586822 L 453.2032519606936,-8.410300479870592 L 453.5562105893995,-7.046746317146096 L 453.8450367024466,-5.603858008615481 L 454.06679943481413,-4.112049028708117 L 454.21998149618565,-2.6027640110767742 L 454.3045111526824,-1.1078159526240245 L 454.32176373888365,0.34128434690202597 L 454.27453266826353,1.713992475543534 L 454.16697055308896,2.9813742300621717 L 454.00450167486883,4.116715496582898 L 453.7937076503149,5.096085335771192 L 453.5421887027725,5.898840403728065 L 453.25840346326584,6.508060076322121 L 452.9514906778634,6.910903105325988 L 452.63107657944835,7.098878288690824 L 452.3070719841497,7.068023449719533 L 451.98946338927317,6.8189889525813525 L 451.68810247601,6.357023993812067 L 451.4124984538258,5.691865958750327 L 451.17161762353277,4.837535175075775 L 450.9736943838948,3.8120393896733833 L 450.8260576654027,2.63699419791694 L 450.73497644968234,1.3371674260347943 L 450.70552763070623,-0.060042929845880284 L 450.74148900305664,-1.5251862038769408 L 450.8452596328515,-3.027379827229839 L 451.0178092897726,-4.5349602767604855 L 451.25865800607545,-6.016150484777137 L 451.5658861934408,-7.439729642122278 L 451.9361751044227,-8.775691276330836 L 452.36487678563867,-9.995875733769116 L 452.8461120482163,-11.074563734174212 L 453.37289439045486,-11.989018486539063 L 453.93727726063855,-12.719964939521704 L 454.5305215559663,-13.251996064646336 L 455.1432798270233,-13.573897608582437 L 455.76579330510026,-13.67888446931109 L 456.3880975993773,-13.564743713797036 L 457.0002327282503,-13.23388122261234 L 457.59245305771935,-12.693270978327723 L 458.15543272171726,-11.954308066580515 L 458.6804621944899,-11.032568488290309 L 459.1596318716377,-9.947480845746632 L 459.58599879026303,-8.721916822831755 L 459.9537329740635,-7.381709091313727 L 460.2582403186826,-5.955106804873672 L 460.4962594271158,-4.472180158066986 L 460.665930354057,-2.9641865610387486 L 460.7668338101804,-1.4629117898822352 L 460.8,-9.909299459487064e-14 L 496.8,-9.909299459487064e-14" style="stroke:black;fill:none;stroke-width:2.0;stroke-dasharray:-;stroke-linecap:round;stroke-linejoin:round;" /><path d="M 496.8,-9.909299459487064e-14 L 496.8,50.7599999999999 M 505.8,50.7599999999999 L 487.8,50.7599999999999 M 505.8,57.239999999999895 L 487.8,57.239999999999895 M 496.8,57.239999999999895 L 496.8,107.9999999999999" style="stroke:black;fill:none;stroke-width:2.0;stroke-dasharray:-;stroke-linecap:round;stroke-linejoin:round;" /><path d="M 496.8,107.9999999999999 L 496.8,122.3999999999999 L 487.8,122.3999999999999 L 505.8,122.3999999999999 M 490.5,126.7199999999999 L 503.1,126.7199999999999 M 495.0,131.0399999999999 L 498.6,131.0399999999999" style="stroke:black;fill:none;stroke-width:2.0;stroke-dasharray:-;stroke-linecap:round;stroke-linejoin:round;" /><path d="M 496.8,-9.909299459487064e-14 L 505.8,-9.909299459487064e-14 L 514.8000000000001,-9.909299459487064e-14" style="stroke:black;fill:none;stroke-width:2.0;stroke-dasharray:-;stroke-linecap:round;stroke-linejoin:round;" /><path d="M 514.8000000000001,-9.909299459487064e-14 L 514.8000000000001,50.7599999999999 M 523.8000000000001,50.7599999999999 L 505.8,50.7599999999999 M 523.8000000000001,57.239999999999895 L 505.8,57.239999999999895 M 514.8000000000001,57.239999999999895 L 514.8000000000001,107.9999999999999" style="stroke:black;fill:none;stroke-width:2.0;stroke-dasharray:-;stroke-linecap:round;stroke-linejoin:round;" /><path d="M 514.8000000000001,107.9999999999999 L 514.8000000000001,122.3999999999999 L 505.8,122.3999999999999 L 523.8000000000001,122.3999999999999 M 508.5,126.7199999999999 L 521.1,126.7199999999999 M 513.0,131.0399999999999 L 516.6,131.0399999999999" style="stroke:black;fill:none;stroke-width:2.0;stroke-dasharray:-;stroke-linecap:round;stroke-linejoin:round;" /><path d="M 514.8000000000001,-9.909299459487064e-14 L 532.8000000000001,-9.909299459487064e-14 L 550.8000000000001,-9.909299459487064e-14" style="stroke:black;fill:none;stroke-width:2.0;stroke-dasharray:-;stroke-linecap:round;stroke-linejoin:round;" /><path d="M 0.0,-0.0 L 0.0,14.4 L -9.0,14.4 L 9.0,14.4 M -6.3,18.72 L 6.3,18.72 M -1.8,23.04 L 1.8,23.04" style="stroke:black;fill:none;stroke-width:2.0;stroke-dasharray:-;stroke-linecap:round;stroke-linejoin:round;" /><text x="54.0" y="-41.099999999999994" dominant-baseline="ideographic" fill="black" font-size="12" font-family="sans" text-anchor="middle"><tspan x="54.0" dy="12">21700</tspan><tspan x="54.0" dy="12">3.7V</tspan></text><text x="198.0" y="-36.6" dominant-baseline="ideographic" fill="black" font-size="12" font-family="sans" text-anchor="middle"><tspan x="198.0" dy="12">TP4056</tspan><tspan x="198.0" dy="12">충전모듈</tspan></text><text x="144.0" y="-12.600000000000003" dominant-baseline="ideographic" fill="black" font-size="9" font-family="sans" text-anchor="middle"><tspan x="144.0" dy="9">10µF</tspan></text><text x="280.8" y="-21.6" dominant-baseline="ideographic" fill="black" font-size="9" font-family="sans" text-anchor="middle"><tspan x="280.8" dy="9">10µF</tspan><tspan x="280.8" dy="9">X5R</tspan></text><text x="334.8" y="-48.6" dominant-baseline="ideographic" fill="black" font-size="12" font-family="sans" text-anchor="middle"><tspan x="334.8" dy="12">TPS62740</tspan><tspan x="334.8" dy="12">DC-DC</tspan><tspan x="334.8" dy="12">VSEL=1001</tspan></text><text x="442.8" y="-37.27888446931109" dominant-baseline="ideographic" fill="black" font-size="10" font-family="sans" text-anchor="middle"><tspan x="442.8" dy="10">L1</tspan><tspan x="442.8" dy="10">2.2µH</tspan></text><text x="496.8" y="102.5999999999999" dominant-baseline="hanging" fill="black" font-size="9" font-family="sans" text-anchor="middle"><tspan x="496.8" dy="9">22µF</tspan></text><text x="514.8000000000001" y="-12.600000000000103" dominant-baseline="ideographic" fill="black" font-size="9" font-family="sans" text-anchor="middle"><tspan x="514.8000000000001" dy="9">100nF</tspan></text><text x="32.40000000000001" y="-48.0" dominant-baseline="central" fill="#D32F2F" font-size="12" font-family="sans" text-anchor="end"><tspan x="32.40000000000001" dy="12">  3.3V Rail →</tspan></text><circle cx="144.0" cy="-0.0" r="2.6999999999999997" style="stroke:black;fill:black;stroke-width:2.0;stroke-dasharray:-;" /><circle cx="280.8" cy="-0.0" r="2.6999999999999997" style="stroke:black;fill:black;stroke-width:2.0;stroke-dasharray:-;" /><circle cx="496.8" cy="-9.909299459487064e-14" r="2.6999999999999997" style="stroke:black;fill:black;stroke-width:2.0;stroke-dasharray:-;" /><circle cx="514.8000000000001" cy="-9.909299459487064e-14" r="2.6999999999999997" style="stroke:black;fill:black;stroke-width:2.0;stroke-dasharray:-;" /></svg>