<svg xmlns="http://www.w3.org/2000/svg" xmlns:xlink="http://www.w3.org/1999/xlink" xml:lang="en" height="243.2pt" width="314.624pt" viewBox="-67.024 -139.6 314.624 243.2"><path d="M 107.31892504762955 85.55183892948406 C 94.02377156446389 -1.279990584316959 90.0 -36.000000000000014 36.0 -36.0" style="stroke:black;fill:none;stroke-width:2;stroke-dasharray:-;stroke-linecap:round;" /><path d="M 107.69730002116869 88.02303952421514 L 103.07932123884632 81.64853782086448 L 110.19637895167183 80.55881789707173 Z" style="stroke:black;fill:black;stroke-linecap:butt;stroke-linejoin:miter;" /><path d="M 158.92170213834652 -68.71761027985103 C 137.5416002378118 -45.920002690195155 130.5 -36.0 36.0 -36.0" style="stroke:#616161;fill:none;stroke-width:2;stroke-dasharray:-;stroke-linecap:round;" /><path d="M 160.6318676170429 -70.54116012437824 L 158.46931605281222 -62.97258227037928 L 153.21749250057385 -67.89785884902484 Z" style="stroke:#616161;fill:#616161;stroke-linecap:butt;stroke-linejoin:miter;" /><path d="M 0.0,-0.0 L 36.0,-0.0 L 72.0,-0.0" style="stroke:black;fill:none;stroke-width:2.0;stroke-dasharray:-;stroke-linecap:round;stroke-linejoin:round;" /><path d="M 72.0,-0.0 L 72.0,-36.0 L 63.0,-39.0 L 81.0,-45.0 L 63.0,-50.99999999999999 L 81.0,-57.0 L 63.0,-63.0 L 81.0,-69.0 L 72.0,-72.0 L 72.0,-108.0" style="stroke:black;fill:none;stroke-width:2.0;stroke-dasharray:-;stroke-linecap:round;stroke-linejoin:round;" /><path d="M 72.0,-108.0 L 72.0,-122.39999999999999" style="stroke:black;fill:none;stroke-width:2.0;stroke-dasharray:-;stroke-linecap:round;stroke-linejoin:round;" /><path d="M 72.0,-122.39999999999999 L 65.25,-122.39999999999999" style="stroke:black;fill:none;stroke-width:2.0;stroke-dasharray:-;stroke-linecap:round;stroke-linejoin:round;" /><path d="M 72.0,-122.39999999999999 L 78.75,-122.39999999999999" style="stroke:black;fill:none;stroke-width:2.0;stroke-dasharray:-;stroke-linecap:round;stroke-linejoin:round;" /><path d="M 72.0,-0.0 L 90.0,-0.0 L 108.0,-0.0" style="stroke:black;fill:none;stroke-width:2.0;stroke-dasharray:-;stroke-linecap:round;stroke-linejoin:round;" /><path d="M 108.0,-0.0 L 144.0,-0.0 L 144.0,-9.0 L 180.0,-9.0 L 180.0,9.0 L 144.0,9.0 L 144.0,-0.0 M 180.0,-0.0 L 216.0,-0.0" style="stroke:black;fill:none;stroke-width:2.0;stroke-dasharray:-;stroke-linecap:round;stroke-linejoin:round;" /><path d="M 216.0,-0.0 L 225.0,-0.0 L 234.0,-0.0" style="stroke:black;fill:none;stroke-width:2.0;stroke-dasharray:-;stroke-linecap:round;stroke-linejoin:round;" /><path d="M 234.0,-0.0 L 234.0,14.4 L 225.0,14.4 L 243.0,14.4 M 227.70000000000002,18.72 L 240.29999999999998,18.72 M 232.20000000000002,23.04 L 235.79999999999998,23.04" style="stroke:black;fill:none;stroke-width:2.0;stroke-dasharray:-;stroke-linecap:round;stroke-linejoin:round;" /><path d="M 0.0,90.0 L 36.0,90.0 L 72.0,90.0" style="stroke:black;fill:none;stroke-width:2.0;stroke-dasharray:-;stroke-linecap:round;stroke-linejoin:round;" /><path d="M 72.0,90.0 L 72.0,54.0 L 63.0,51.0 L 81.0,45.0 L 63.0,39.00000000000001 L 81.0,33.0 L 63.0,27.0 L 81.0,21.000000000000007 L 72.0,18.0 L 72.0,-18.0" style="stroke:black;fill:none;stroke-width:2.0;stroke-dasharray:-;stroke-linecap:round;stroke-linejoin:round;" /><path d="M 72.0,-18.0 L 72.0,-32.4" style="stroke:black;fill:none;stroke-width:2.0;stroke-dasharray:-;stroke-linecap:round;stroke-linejoin:round;" /><path d="M 72.0,-32.4 L 65.25,-32.4" style="stroke:black;fill:none;stroke-width:2.0;stroke-dasharray:-;stroke-linecap:round;stroke-linejoin:round;" /><path d="M 72.0,-32.4 L 78.75,-32.4" style="stroke:black;fill:none;stroke-width:2.0;stroke-dasharray:-;stroke-linecap:round;stroke-linejoin:round;" /><path d="M 72.0,90.0 L 90.0,90.0 L 108.0,90.0" style="stroke:black;fill:none;stroke-width:2.0;stroke-dasharray:-;stroke-linecap:round;stroke-linejoin:round;" /><text x="36.0" y="-15.6" dominant-baseline="ideographic" fill="black" font-size="12" font-family="sans" text-anchor="middle"><tspan x="36.0" dy="12">SCL</tspan></text><text x="72.0" y="-120.60000000000001" dominant-baseline="ideographic" fill="black" font-size="9" font-family="sans" text-anchor="middle"><tspan x="72.0" dy="9">10kΩ</tspan></text><text x="72.0" y="-135.0" dominant-baseline="ideographic" fill="black" font-size="9" font-family="sans" text-anchor="middle"><tspan x="72.0" dy="9">3.3V</tspan></text><text x="162.0" y="-60.6" dominant-baseline="ideographic" fill="black" font-size="12" font-family="sans" text-anchor="middle"><tspan x="162.0" dy="12">SHT30</tspan><tspan x="162.0" dy="12">온습도</tspan><tspan x="162.0" dy="12" /><tspan x="162.0" dy="12">Addr: 0x44</tspan></text><text x="36.0" y="74.39999999999999" dominant-baseline="ideographic" fill="black" font-size="12" font-family="sans" text-anchor="middle"><tspan x="36.0" dy="12">SDA</tspan></text><text x="72.0" y="-30.6" dominant-baseline="ideographic" fill="black" font-size="9" font-family="sans" text-anchor="middle"><tspan x="72.0" dy="9">10kΩ</tspan></text><text x="72.0" y="-45.0" dominant-baseline="ideographic" fill="black" font-size="9" font-family="sans" text-anchor="middle"><tspan x="72.0" dy="9">3.3V</tspan></text><text x="32.4" y="-45.0" dominant-baseline="central" fill="black" font-size="9" font-family="sans" text-anchor="end"><tspan x="32.4" dy="9">  → SHT30 SDA</tspan></text><text x="32.4" y="-45.0" dominant-baseline="central" fill="#616161" font-size="9" font-family="sans" text-anchor="end"><tspan x="32.4" dy="9">VCC: 3.3V + 100nF 바이패스</tspan></text><circle cx="0.0" cy="-0.0" r="2.6999999999999997" style="stroke:black;fill:white;stroke-width:2.0;stroke-dasharray:-;" /><text x="-6.3" y="-13.5" dominant-baseline="central" fill="black" font-size="9" font-family="sans" text-anchor="end"><tspan x="-6.3" dy="9">ESP32</tspan><tspan x="-6.3" dy="9">GPIO6</tspan></text><circle cx="72.0" cy="-0.0" r="2.6999999999999997" style="stroke:black;fill:black;stroke-width:2.0;stroke-dasharray:-;" /><circle cx="0.0" cy="90.0" r="2.6999999999999997" style="stroke:black;fill:white;stroke-width:2.0;stroke-dasharray:-;" /><text x="-6.3" y="76.5" dominant-baseline="central" fill="black" font-size="9" font-family="sans" text-anchor="end"><tspan x="-6.3" dy="9">ESP32</tspan><tspan x="-6.3" dy="9">GPIO7</tspan></text><circle cx="72.0" cy="90.0" r="2.6999999999999997" style="stroke:black;fill:black;stroke-width:2.0;stroke-dasharray:-;" /></svg>