<svg xmlns="http://www.w3.org/2000/svg" xmlns:xlink="http://www.w3.org/1999/xlink" xml:lang="en" height="425.24pt" width="419.8879999999999pt" viewBox="-49.28799999999997 -139.6 419.8879999999999 425.24"><path d="M 299.44697151847004 127.85549868585561 C 249.72089192910857 10.29334588757741 234.89999999999995 -36.0 36.0 -36.0" style="stroke:#616161;fill:none;stroke-width:2;stroke-dasharray:-;stroke-linecap:round;" /><path d="M 300.4208762304311 130.15799941593582 L 294.3783419856245 125.11342015693513 L 301.00954408825555 122.3085745864872 Z" style="stroke:#616161;fill:#616161;stroke-linecap:butt;stroke-linejoin:miter;" /><path d="M 364.5994716248679 229.7234920471897 C 301.9422863371261 38.400020176463656 283.5 -36.00000000000003 36.0 -36.0" style="stroke:#616161;fill:none;stroke-width:2;stroke-dasharray:-;stroke-linecap:round;" /><path d="M 365.37754294438577 232.09932979875097 L 359.7777368874876 226.56740679448504 L 366.6201496119841 224.3265613942737 Z" style="stroke:#616161;fill:#616161;stroke-linecap:butt;stroke-linejoin:miter;" /><path d="M 0.0,-0.0 L 36.0,-0.0 L 72.0,-0.0" style="stroke:black;fill:none;stroke-width:2.0;stroke-dasharray:-;stroke-linecap:round;stroke-linejoin:round;" /><path d="M 72.0,-0.0 L 72.0,-36.0 L 63.0,-39.0 L 81.0,-45.0 L 63.0,-50.99999999999999 L 81.0,-57.0 L 63.0,-63.0 L 81.0,-69.0 L 72.0,-72.0 L 72.0,-108.0" style="stroke:black;fill:none;stroke-width:2.0;stroke-dasharray:-;stroke-linecap:round;stroke-linejoin:round;" /><path d="M 72.0,-108.0 L 72.0,-122.39999999999999" style="stroke:black;fill:none;stroke-width:2.0;stroke-dasharray:-;stroke-linecap:round;stroke-linejoin:round;" /><path d="M 72.0,-122.39999999999999 L 65.25,-122.39999999999999" style="stroke:black;fill:none;stroke-width:2.0;stroke-dasharray:-;stroke-linecap:round;stroke-linejoin:round;" /><path d="M 72.0,-122.39999999999999 L 78.75,-122.39999999999999" style="stroke:black;fill:none;stroke-width:2.0;stroke-dasharray:-;stroke-linecap:round;stroke-linejoin:round;" /><path d="M 72.0,-0.0 L 90.0,-0.0 L 108.0,-0.0" style="stroke:black;fill:none;stroke-width:2.0;stroke-dasharray:-;stroke-linecap:round;stroke-linejoin:round;" /><path d="M 108.0,-0.0 L 144.0,-0.0 L 144.0,-9.0 L 180.0,-9.0 L 180.0,9.0 L 144.0,9.0 L 144.0,-0.0 M 180.0,-0.0 L 216.0,-0.0" style="stroke:black;fill:none;stroke-width:2.0;stroke-dasharray:-;stroke-linecap:round;stroke-linejoin:round;" /><path d="M 216.0,-0.0 L 225.0,-0.0 L 234.0,-0.0" style="stroke:black;fill:none;stroke-width:2.0;stroke-dasharray:-;stroke-linecap:round;stroke-linejoin:round;" /><path d="M 234.0,-0.0 L 234.0,27.0 L 234.0,54.0" style="stroke:black;fill:none;stroke-width:2.0;stroke-dasharray:-;stroke-linecap:round;stroke-linejoin:round;" /><path d="M 162.0,-0.0 L 162.0,-21.599999999999998 L 162.0,-43.199999999999996" style="stroke:black;fill:none;stroke-width:2.0;stroke-dasharray:-;stroke-linecap:round;stroke-linejoin:round;" /><path d="M 162.0,-43.199999999999996 L 162.0,-57.6" style="stroke:black;fill:none;stroke-width:2.0;stroke-dasharray:-;stroke-linecap:round;stroke-linejoin:round;" /><path d="M 162.0,-57.6 L 155.25,-57.6" style="stroke:black;fill:none;stroke-width:2.0;stroke-dasharray:-;stroke-linecap:round;stroke-linejoin:round;" /><path d="M 162.0,-57.6 L 168.75,-57.6" style="stroke:black;fill:none;stroke-width:2.0;stroke-dasharray:-;stroke-linecap:round;stroke-linejoin:round;" /><path d="M 108.0,-0.0 L 107.99999999999999,45.0 L 107.99999999999999,90.0" style="stroke:black;fill:none;stroke-width:2.0;stroke-dasharray:-;stroke-linecap:round;stroke-linejoin:round;" /><path d="M 107.99999999999999,90.0 L 125.99999999999999,90.0 L 143.99999999999997,90.0" style="stroke:black;fill:none;stroke-width:2.0;stroke-dasharray:-;stroke-linecap:round;stroke-linejoin:round;" /><path d="M 143.99999999999997,90.0 L 180.0,90.0 L 180.0,81.0 L 216.0,81.0 L 216.0,99.0 L 180.0,99.0 L 180.0,90.0 M 216.0,90.0 L 252.0,90.0" style="stroke:black;fill:none;stroke-width:2.0;stroke-dasharray:-;stroke-linecap:round;stroke-linejoin:round;" /><path d="M 252.0,90.0 L 261.0,90.0 L 270.0,90.0" style="stroke:black;fill:none;stroke-width:2.0;stroke-dasharray:-;stroke-linecap:round;stroke-linejoin:round;" /><path d="M 270.0,90.0 L 270.0,117.0 L 270.0,144.0" style="stroke:black;fill:none;stroke-width:2.0;stroke-dasharray:-;stroke-linecap:round;stroke-linejoin:round;" /><path d="M 198.0,90.0 L 198.0,68.39999999999999 L 198.0,46.800000000000004" style="stroke:black;fill:none;stroke-width:2.0;stroke-dasharray:-;stroke-linecap:round;stroke-linejoin:round;" /><path d="M 198.0,46.800000000000004 L 198.0,32.4" style="stroke:black;fill:none;stroke-width:2.0;stroke-dasharray:-;stroke-linecap:round;stroke-linejoin:round;" /><path d="M 198.0,32.4 L 191.25,32.4" style="stroke:black;fill:none;stroke-width:2.0;stroke-dasharray:-;stroke-linecap:round;stroke-linejoin:round;" /><path d="M 198.0,32.4 L 204.75,32.4" style="stroke:black;fill:none;stroke-width:2.0;stroke-dasharray:-;stroke-linecap:round;stroke-linejoin:round;" /><path d="M 234.0,54.0 L 234.0,99.0 L 233.99999999999997,144.0" style="stroke:black;fill:none;stroke-width:2.0;stroke-dasharray:-;stroke-linecap:round;stroke-linejoin:round;" /><path d="M 233.99999999999997,144.0 L 252.0,144.0 L 270.0,144.0" style="stroke:black;fill:none;stroke-width:2.0;stroke-dasharray:-;stroke-linecap:round;stroke-linejoin:round;" /><path d="M 270.0,144.0 L 270.0,162.0 L 270.0,180.0" style="stroke:black;fill:none;stroke-width:2.0;stroke-dasharray:-;stroke-linecap:round;stroke-linejoin:round;" /><path d="M 289.5,171.0 L 292.5,171.0" style="stroke:black;fill:none;stroke-width:2.0;stroke-dasharray:-;stroke-linecap:round;stroke-linejoin:round;" /><path d="M 298.5,171.0 L 301.5,171.0" style="stroke:black;fill:none;stroke-width:2.0;stroke-dasharray:-;stroke-linecap:round;stroke-linejoin:round;" /><path d="M 307.5,171.0 L 310.5,171.0" style="stroke:black;fill:none;stroke-width:2.0;stroke-dasharray:-;stroke-linecap:round;stroke-linejoin:round;" /><path d="M 291.0,180.0 L 270.0,180.0" style="stroke:black;fill:none;stroke-width:2.0;stroke-dasharray:-;stroke-linecap:round;stroke-linejoin:round;" /><path d="M 291.0,171.0 L 291.0,180.0" style="stroke:black;fill:none;stroke-width:2.0;stroke-dasharray:-;stroke-linecap:round;stroke-linejoin:round;" /><path d="M 330.0,180.0 L 309.0,180.0" style="stroke:black;fill:none;stroke-width:2.0;stroke-dasharray:-;stroke-linecap:round;stroke-linejoin:round;" /><path d="M 309.0,171.0 L 309.0,180.0" style="stroke:black;fill:none;stroke-width:2.0;stroke-dasharray:-;stroke-linecap:round;stroke-linejoin:round;" /><path d="M 312.0,150.0 L 312.0,165.00000000000003" style="stroke:black;fill:none;stroke-width:2.0;stroke-dasharray:-;stroke-linecap:round;stroke-linejoin:round;" /><path d="M 312.0,165.00000000000003 L 288.0,165.00000000000003" style="stroke:black;fill:none;stroke-width:2.0;stroke-dasharray:-;stroke-linecap:round;stroke-linejoin:round;" /><path d="M 300.0,177.0 L 300.0,180.0" style="stroke:black;fill:none;stroke-width:2.0;stroke-dasharray:-;stroke-linecap:round;stroke-linejoin:round;" /><path d="M 300.0 173.0 L 303.0 177.0 L 297.0 177.0 Z" style="stroke:black;fill:black;stroke-linecap:butt;stroke-linejoin:miter;" /><path d="M 300.0,180.0 L 309.0,180.0" style="stroke:black;fill:none;stroke-width:2.0;stroke-dasharray:-;stroke-linecap:round;stroke-linejoin:round;" /><path d="M 330.0,180.0 L 330.0,194.4 L 321.0,194.4 L 339.0,194.4 M 323.69999999999993,198.71999999999997 L 336.3,198.71999999999997 M 328.19999999999993,203.04 L 331.8,203.04" style="stroke:black;fill:none;stroke-width:2.0;stroke-dasharray:-;stroke-linecap:round;stroke-linejoin:round;" /><path d="M 312.0,150.0 L 312.0,186.0 L 321.0,189.0 L 303.0,195.0 L 321.0,201.00000000000003 L 303.0,207.0 L 321.0,213.0 L 303.0,219.00000000000003 L 312.0,222.0 L 312.0,258.0" style="stroke:black;fill:none;stroke-width:2.0;stroke-dasharray:-;stroke-linecap:round;stroke-linejoin:round;" /><path d="M 312.0,258.0 L 312.0,272.40000000000003 L 303.0,272.40000000000003 L 321.0,272.40000000000003 M 305.69999999999993,276.72 L 318.3,276.72 M 310.19999999999993,281.04 L 313.8,281.04" style="stroke:black;fill:none;stroke-width:2.0;stroke-dasharray:-;stroke-linecap:round;stroke-linejoin:round;" /><path d="M 312.0,150.0 L 258.0,150.0 L 203.99999999999997,150.0" style="stroke:black;fill:none;stroke-width:2.0;stroke-dasharray:-;stroke-linecap:round;stroke-linejoin:round;" /><text x="36.0" y="-15.6" dominant-baseline="ideographic" fill="black" font-size="12" font-family="sans" text-anchor="middle"><tspan x="36.0" dy="12">DQ (1-Wire)</tspan></text><text x="72.0" y="-120.60000000000001" dominant-baseline="ideographic" fill="black" font-size="9" font-family="sans" text-anchor="middle"><tspan x="72.0" dy="9">4.7kΩ</tspan></text><text x="72.0" y="-135.0" dominant-baseline="ideographic" fill="black" font-size="9" font-family="sans" text-anchor="middle"><tspan x="72.0" dy="9">3.3V</tspan></text><text x="162.0" y="-36.6" dominant-baseline="ideographic" fill="black" font-size="12" font-family="sans" text-anchor="middle"><tspan x="162.0" dy="12">DS18B20</tspan><tspan x="162.0" dy="12">#1 핫존</tspan></text><text x="162.0" y="-70.19999999999999" dominant-baseline="ideographic" fill="black" font-size="9" font-family="sans" text-anchor="middle"><tspan x="162.0" dy="9">3.3V</tspan></text><text x="198.0" y="53.39999999999999" dominant-baseline="ideographic" fill="black" font-size="12" font-family="sans" text-anchor="middle"><tspan x="198.0" dy="12">DS18B20</tspan><tspan x="198.0" dy="12">#2 쿨존</tspan></text><text x="198.0" y="19.8" dominant-baseline="ideographic" fill="black" font-size="9" font-family="sans" text-anchor="middle"><tspan x="198.0" dy="9">3.3V</tspan></text><text x="32.40000000000001" y="-45.0" dominant-baseline="central" fill="#616161" font-size="9" font-family="sans" text-anchor="end"><tspan x="32.40000000000001" dy="9">BSS138</tspan></text><text x="312.0" y="137.39999999999998" dominant-baseline="ideographic" fill="black" font-size="9" font-family="sans" text-anchor="middle"><tspan x="312.0" dy="9">10kΩ</tspan></text><text x="32.40000000000001" y="-52.0" dominant-baseline="central" fill="#616161" font-size="8" font-family="sans" text-anchor="end"><tspan x="32.40000000000001" dy="8">HIGH → GND 연결 → ON</tspan><tspan x="32.40000000000001" dy="8">LOW  → GND 차단 → OFF</tspan><tspan x="32.40000000000001" dy="8">(Deep Sleep시 전력 차단)</tspan></text><circle cx="0.0" cy="-0.0" r="2.6999999999999997" style="stroke:black;fill:white;stroke-width:2.0;stroke-dasharray:-;" /><text x="-6.3" y="-13.5" dominant-baseline="central" fill="black" font-size="9" font-family="sans" text-anchor="end"><tspan x="-6.3" dy="9">ESP32</tspan><tspan x="-6.3" dy="9">GPIO2</tspan></text><circle cx="72.0" cy="-0.0" r="2.6999999999999997" style="stroke:black;fill:black;stroke-width:2.0;stroke-dasharray:-;" /><circle cx="108.0" cy="-0.0" r="2.6999999999999997" style="stroke:black;fill:black;stroke-width:2.0;stroke-dasharray:-;" /><circle cx="234.0" cy="-0.0" r="2.6999999999999997" style="stroke:black;fill:black;stroke-width:2.0;stroke-dasharray:-;" /><circle cx="234.0" cy="54.0" r="2.6999999999999997" style="stroke:black;fill:black;stroke-width:2.0;stroke-dasharray:-;" /><circle cx="270.0" cy="90.0" r="2.6999999999999997" style="stroke:black;fill:black;stroke-width:2.0;stroke-dasharray:-;" /><circle cx="270.0" cy="144.0" r="2.6999999999999997" style="stroke:black;fill:black;stroke-width:2.0;stroke-dasharray:-;" /><circle cx="270.0" cy="180.0" r="2.6999999999999997" style="stroke:black;fill:black;stroke-width:2.0;stroke-dasharray:-;" /><circle cx="203.99999999999997" cy="150.0" r="2.6999999999999997" style="stroke:black;fill:white;stroke-width:2.0;stroke-dasharray:-;" /><text x="197.7" y="136.5" dominant-baseline="central" fill="black" font-size="9" font-family="sans" text-anchor="end"><tspan x="197.7" dy="9">ESP32 GPIO3</tspan><tspan x="197.7" dy="9">(GND SW)</tspan></text></svg>