<svg xmlns="http://www.w3.org/2000/svg" xmlns:xlink="http://www.w3.org/1999/xlink" xml:lang="en" height="624.3200000000002pt" width="289.844pt" viewBox="-60.18399999999997 -200.68000000000004 289.844 624.3200000000002"><path d="M 150.10388144375904 -3.392839972861646 C 130.3369819352242 -26.079997309804845 123.795 -36.0 36.0 -36.0" style="stroke:#616161;fill:none;stroke-width:2;stroke-dasharray:-;stroke-linecap:round;" /><path d="M 151.74616953055957 -1.5079288768273982 L 144.43349090922874 -4.420785100730518 L 149.86203486580737 -9.150574790716066 Z" style="stroke:#616161;fill:#616161;stroke-linecap:butt;stroke-linejoin:miter;" /><path d="M 222.1872612148051 -93.61627774323102 C 188.3607534996881 -52.83093789769779 177.79500000000002 -35.99999999999999 36.0 -36.0" style="stroke:#E65100;fill:none;stroke-width:2;stroke-dasharray:-;stroke-linecap:round;" /><path d="M 223.78322720658005 -95.54056788588045 L 222.08550023502536 -87.8543644583061 L 216.543544624195 -92.45074651461795 Z" style="stroke:#E65100;fill:#e65100;stroke-linecap:butt;stroke-linejoin:miter;" /><path d="M 221.2649758919911 -65.86177916235278 C 188.3607534996881 -44.89493574554165 177.79500000000002 -35.99999999999999 36.0 -36.0" style="stroke:#616161;fill:none;stroke-width:2;stroke-dasharray:-;stroke-linecap:round;" /><path d="M 223.3733226186627 -67.2052351832679 L 219.4045284541 -60.407539038298424 L 215.5353751138644 -66.47957761111266 Z" style="stroke:#616161;fill:#616161;stroke-linecap:butt;stroke-linejoin:miter;" /><path d="M 222.713975997691 43.07992560220639 C 188.3607534996881 -13.150927136917161 177.79500000000002 -36.0 36.0 -36.0" style="stroke:#E65100;fill:none;stroke-width:2;stroke-dasharray:-;stroke-linecap:round;" /><path d="M 224.01732266564042 45.213300267647284 L 217.29589247714705 41.116670406260006 L 223.4400115136168 37.36303200256556 Z" style="stroke:#E65100;fill:#e65100;stroke-linecap:butt;stroke-linejoin:miter;" /><path d="M 155.5556010192595 283.5219971476207 C 132.7062859407731 53.28002421175639 126.0 -36.0 36.0 -36.0" style="stroke:#616161;fill:none;stroke-width:2;stroke-dasharray:-;stroke-linecap:round;" /><path d="M 155.8024893418931 286.00977651005365 L 151.52879975661563 279.39951347983384 L 158.69360432042245 278.68847511064905 Z" style="stroke:#616161;fill:#616161;stroke-linecap:butt;stroke-linejoin:miter;" /><polygon points="129.0,180.3 138.0,167.70000000000002 147.0,180.3 " style="stroke:black;fill:none;stroke-width:2.0;stroke-dasharray:-;stroke-linecap:round;stroke-linejoin:round;" /><path d="M 137.1257582184395 97.58573887186385 C 118.20034304965716 2.0266769790814365 112.5 -36.000000000000014 36.0 -36.0" style="stroke:#D32F2F;fill:none;stroke-width:2;stroke-dasharray:-;stroke-linecap:round;" /><path d="M 137.61144809708424 100.03810616527285 L 132.72010753437013 93.8708711689761 L 139.782925339388 92.47208431847932 Z" style="stroke:#D32F2F;fill:#d32f2f;stroke-linecap:butt;stroke-linejoin:miter;" /><path d="M 215.43044077996944 337.5361897111461 C 181.0594289111597 68.16002824704913 171.0 -36.000000000000064 36.0 -36.0" style="stroke:#616161;fill:none;stroke-width:2;stroke-dasharray:-;stroke-linecap:round;" /><path d="M 215.74686256887531 340.0160843160649 L 211.28983332885576 333.52802679831655 L 218.43192979102204 332.61673204626766 Z" style="stroke:#616161;fill:#616161;stroke-linecap:butt;stroke-linejoin:miter;" /><path d="M 0.0,-0.0 L 36.0,-0.0 L 39.0,-9.0 L 45.0,9.0 L 50.99999999999999,-9.0 L 57.0,9.0 L 63.0,-9.0 L 69.0,9.0 L 72.0,-0.0 L 108.0,-0.0" style="stroke:black;fill:none;stroke-width:2.0;stroke-dasharray:-;stroke-linecap:round;stroke-linejoin:round;" /><path d="M 108.0,-0.0 L 121.2,-0.0" style="stroke:black;fill:none;stroke-width:2.0;stroke-dasharray:-;stroke-linecap:round;stroke-linejoin:round;" /><path d="M 121.2,-13.2 L 121.2,13.2" style="stroke:black;fill:none;stroke-width:2.0;stroke-dasharray:-;stroke-linecap:round;stroke-linejoin:round;" /><path d="M 121.2,-6.6 L 135.06,-18.48 L 135.06,-25.08" style="stroke:black;fill:none;stroke-width:2.0;stroke-dasharray:-;stroke-linecap:round;stroke-linejoin:round;" /><path d="M 121.2,6.6 L 135.06,18.48 L 135.06,25.08" style="stroke:black;fill:none;stroke-width:2.0;stroke-dasharray:-;stroke-linecap:round;stroke-linejoin:round;" /><path d="M 121.2,6.6 L 128.22669057871232,12.62287763889628" style="stroke:black;fill:none;stroke-width:2.0;stroke-dasharray:-;stroke-linecap:round;stroke-linejoin:round;" /><path d="M 133.5414867952694 17.178417253088064 L 125.88384163427085 15.35620140741135 L 130.56953952315382 9.889553870381214 Z" style="stroke:black;fill:black;stroke-linecap:butt;stroke-linejoin:miter;" /><path d="M 135.06,25.08 L 135.06,39.480000000000004 L 126.05999999999999,39.480000000000004 L 144.06,39.480000000000004 M 128.76,43.800000000000004 L 141.35999999999999,43.800000000000004 M 133.26,48.12 L 136.85999999999999,48.12" style="stroke:black;fill:none;stroke-width:2.0;stroke-dasharray:-;stroke-linecap:round;stroke-linejoin:round;" /><path d="M 135.06,-25.08 L 135.06,-34.08 L 135.06,-43.080000000000005" style="stroke:black;fill:none;stroke-width:2.0;stroke-dasharray:-;stroke-linecap:round;stroke-linejoin:round;" /><path d="M 135.06,-43.080000000000005 L 135.06,-79.08 L 126.05999999999999,-79.08 L 126.05999999999999,-115.08 L 144.06,-115.08 L 144.06,-79.08 L 135.06,-79.08 M 135.06,-115.08 L 135.06,-151.08" style="stroke:black;fill:none;stroke-width:2.0;stroke-dasharray:-;stroke-linecap:round;stroke-linejoin:round;" /><path d="M 135.06,-151.08 L 135.06,-160.08 L 135.06,-169.08" style="stroke:black;fill:none;stroke-width:2.0;stroke-dasharray:-;stroke-linecap:round;stroke-linejoin:round;" /><path d="M 135.06,-169.08 L 135.06,-183.48000000000002" style="stroke:black;fill:none;stroke-width:2.0;stroke-dasharray:-;stroke-linecap:round;stroke-linejoin:round;" /><path d="M 135.06,-183.48000000000002 L 128.31,-183.48000000000002" style="stroke:black;fill:none;stroke-width:2.0;stroke-dasharray:-;stroke-linecap:round;stroke-linejoin:round;" /><path d="M 135.06,-183.48000000000002 L 141.81,-183.48000000000002" style="stroke:black;fill:none;stroke-width:2.0;stroke-dasharray:-;stroke-linecap:round;stroke-linejoin:round;" /><path d="M 0.0,144.0 L 36.0,144.0 L 39.0,135.0 L 45.0,153.0 L 50.99999999999999,135.0 L 57.0,153.0 L 63.0,135.0 L 69.0,153.0 L 72.0,144.0 L 108.0,144.0" style="stroke:black;fill:none;stroke-width:2.0;stroke-dasharray:-;stroke-linecap:round;stroke-linejoin:round;" /><path d="M 108.0,144.0 L 121.2,144.0" style="stroke:black;fill:none;stroke-width:2.0;stroke-dasharray:-;stroke-linecap:round;stroke-linejoin:round;" /><path d="M 121.2,130.8 L 121.2,157.2" style="stroke:black;fill:none;stroke-width:2.0;stroke-dasharray:-;stroke-linecap:round;stroke-linejoin:round;" /><path d="M 121.2,137.4 L 135.06,125.52000000000001 L 135.06,118.92" style="stroke:black;fill:none;stroke-width:2.0;stroke-dasharray:-;stroke-linecap:round;stroke-linejoin:round;" /><path d="M 121.2,150.60000000000002 L 135.06,162.48000000000002 L 135.06,169.07999999999998" style="stroke:black;fill:none;stroke-width:2.0;stroke-dasharray:-;stroke-linecap:round;stroke-linejoin:round;" /><path d="M 121.2,150.60000000000002 L 128.22669057871232,156.62287763889628" style="stroke:black;fill:none;stroke-width:2.0;stroke-dasharray:-;stroke-linecap:round;stroke-linejoin:round;" /><path d="M 133.5414867952694 161.17841725308807 L 125.88384163427085 159.35620140741136 L 130.56953952315382 153.88955387038123 Z" style="stroke:black;fill:black;stroke-linecap:butt;stroke-linejoin:miter;" /><path d="M 135.06,169.07999999999998 L 135.06,183.48 L 126.05999999999999,183.48 L 144.06,183.48 M 128.76,187.8 L 141.35999999999999,187.8 M 133.26,192.11999999999998 L 136.85999999999999,192.11999999999998" style="stroke:black;fill:none;stroke-width:2.0;stroke-dasharray:-;stroke-linecap:round;stroke-linejoin:round;" /><path d="M 135.06,118.92 L 135.06,109.92 L 135.06,100.92" style="stroke:black;fill:none;stroke-width:2.0;stroke-dasharray:-;stroke-linecap:round;stroke-linejoin:round;" /><path d="M 135.06,100.92 L 135.06,64.92 L 126.05999999999999,64.92 L 126.05999999999999,28.919999999999995 L 144.06,28.919999999999995 L 144.06,64.92 L 135.06,64.92 M 135.06,28.919999999999995 L 135.06,-7.080000000000004" style="stroke:black;fill:none;stroke-width:2.0;stroke-dasharray:-;stroke-linecap:round;stroke-linejoin:round;" /><path d="M 135.06,-7.080000000000004 L 135.06,-16.080000000000005 L 135.06,-25.080000000000005" style="stroke:black;fill:none;stroke-width:2.0;stroke-dasharray:-;stroke-linecap:round;stroke-linejoin:round;" /><path d="M 135.06,-25.080000000000005 L 135.06,-39.480000000000004" style="stroke:black;fill:none;stroke-width:2.0;stroke-dasharray:-;stroke-linecap:round;stroke-linejoin:round;" /><path d="M 135.06,-39.480000000000004 L 128.31,-39.480000000000004" style="stroke:black;fill:none;stroke-width:2.0;stroke-dasharray:-;stroke-linecap:round;stroke-linejoin:round;" /><path d="M 135.06,-39.480000000000004 L 141.81,-39.480000000000004" style="stroke:black;fill:none;stroke-width:2.0;stroke-dasharray:-;stroke-linecap:round;stroke-linejoin:round;" /><path d="M 0.0,288.0 L 36.0,288.0 L 39.0,279.0 L 45.0,297.0 L 50.99999999999999,279.0 L 57.0,297.0 L 63.0,279.0 L 69.0,297.0 L 72.0,288.0 L 108.0,288.0" style="stroke:black;fill:none;stroke-width:2.0;stroke-dasharray:-;stroke-linecap:round;stroke-linejoin:round;" /><path d="M 108.0,288.0 L 108.0,324.0 L 117.0,327.0 L 99.0,333.0 L 116.99999999999999,339.0 L 98.99999999999999,345.0 L 116.99999999999999,351.0 L 98.99999999999999,357.0 L 107.99999999999999,360.0 L 107.99999999999999,396.0" style="stroke:black;fill:none;stroke-width:2.0;stroke-dasharray:-;stroke-linecap:round;stroke-linejoin:round;" /><path d="M 107.99999999999999,396.0 L 107.99999999999999,410.40000000000003 L 98.99999999999999,410.40000000000003 L 116.99999999999999,410.40000000000003 M 101.69999999999999,414.71999999999997 L 114.29999999999998,414.71999999999997 M 106.19999999999999,419.04 L 109.79999999999998,419.04" style="stroke:black;fill:none;stroke-width:2.0;stroke-dasharray:-;stroke-linecap:round;stroke-linejoin:round;" /><path d="M 129.0,265.5 L 129.0,268.5" style="stroke:black;fill:none;stroke-width:2.0;stroke-dasharray:-;stroke-linecap:round;stroke-linejoin:round;" /><path d="M 129.0,274.5 L 129.0,277.5" style="stroke:black;fill:none;stroke-width:2.0;stroke-dasharray:-;stroke-linecap:round;stroke-linejoin:round;" /><path d="M 129.0,283.5 L 129.0,286.5" style="stroke:black;fill:none;stroke-width:2.0;stroke-dasharray:-;stroke-linecap:round;stroke-linejoin:round;" /><path d="M 138.0,267.0 L 138.0,246.00000000000003" style="stroke:black;fill:none;stroke-width:2.0;stroke-dasharray:-;stroke-linecap:round;stroke-linejoin:round;" /><path d="M 129.0,267.0 L 138.0,267.0" style="stroke:black;fill:none;stroke-width:2.0;stroke-dasharray:-;stroke-linecap:round;stroke-linejoin:round;" /><path d="M 138.0,306.0 L 138.0,285.0" style="stroke:black;fill:none;stroke-width:2.0;stroke-dasharray:-;stroke-linecap:round;stroke-linejoin:round;" /><path d="M 129.0,285.0 L 138.0,285.0" style="stroke:black;fill:none;stroke-width:2.0;stroke-dasharray:-;stroke-linecap:round;stroke-linejoin:round;" /><path d="M 108.0,288.0 L 123.0,288.0" style="stroke:black;fill:none;stroke-width:2.0;stroke-dasharray:-;stroke-linecap:round;stroke-linejoin:round;" /><path d="M 123.0,288.0 L 123.0,264.0" style="stroke:black;fill:none;stroke-width:2.0;stroke-dasharray:-;stroke-linecap:round;stroke-linejoin:round;" /><path d="M 134.99999999999997,276.0 L 138.0,276.0" style="stroke:black;fill:none;stroke-width:2.0;stroke-dasharray:-;stroke-linecap:round;stroke-linejoin:round;" /><path d="M 131.0 276.0 L 135.0 273.0 L 135.0 279.0 Z" style="stroke:black;fill:black;stroke-linecap:butt;stroke-linejoin:miter;" /><path d="M 138.0,276.0 L 138.0,285.0" style="stroke:black;fill:none;stroke-width:2.0;stroke-dasharray:-;stroke-linecap:round;stroke-linejoin:round;" /><path d="M 138.0,306.0 L 138.0,320.40000000000003 L 129.0,320.40000000000003 L 147.0,320.40000000000003 M 131.7,324.71999999999997 L 144.29999999999998,324.71999999999997 M 136.2,329.04 L 139.79999999999998,329.04" style="stroke:black;fill:none;stroke-width:2.0;stroke-dasharray:-;stroke-linecap:round;stroke-linejoin:round;" /><path d="M 138.0,246.00000000000003 L 138.0,237.00000000000003 L 138.0,228.00000000000003" style="stroke:black;fill:none;stroke-width:2.0;stroke-dasharray:-;stroke-linecap:round;stroke-linejoin:round;" /><path d="M 138.0,228.00000000000003 L 138.0,180.3 M 129.0,167.70000000000002 L 147.0,167.70000000000002 M 138.0,167.70000000000002 L 138.0,120.00000000000003" style="stroke:black;fill:none;stroke-width:2.0;stroke-dasharray:-;stroke-linecap:round;stroke-linejoin:round;" /><path d="M 124.49999999999999,171.3 L 115.00135062329609,165.87220035616923" style="stroke:black;fill:none;stroke-width:2.0;stroke-dasharray:-;stroke-linecap:round;stroke-linejoin:round;" /><path d="M 110.4864862842489 163.29227787671368 L 116.43023076576377 163.37166010685078 L 113.57247048082841 168.37274060548768 Z" style="stroke:black;fill:black;stroke-linecap:butt;stroke-linejoin:miter;" /><path d="M 124.49999999999999,179.40000000000003 L 115.00135062329609,173.97220035616925" style="stroke:black;fill:none;stroke-width:2.0;stroke-dasharray:-;stroke-linecap:round;stroke-linejoin:round;" /><path d="M 110.4864862842489 171.3922778767137 L 116.43023076576377 171.4716601068508 L 113.57247048082841 176.4727406054877 Z" style="stroke:black;fill:black;stroke-linecap:butt;stroke-linejoin:miter;" /><path d="M 138.0,120.00000000000003 L 138.0,111.00000000000003 L 138.0,102.00000000000003" style="stroke:black;fill:none;stroke-width:2.0;stroke-dasharray:-;stroke-linecap:round;stroke-linejoin:round;" /><text x="54.0" y="-21.6" dominant-baseline="ideographic" fill="black" font-size="9" font-family="sans" text-anchor="middle"><tspan x="54.0" dy="9">1kΩ</tspan></text><text x="32.4" y="-44.0" dominant-baseline="central" fill="#616161" font-size="8" font-family="sans" text-anchor="end"><tspan x="32.4" dy="8">2N2222</tspan></text><text x="122.46" y="-115.08" dominant-baseline="central" fill="black" font-size="12" font-family="sans" text-anchor="end"><tspan x="122.46" dy="12">SSR #1</tspan><tspan x="122.46" dy="12">G3MB-202P</tspan></text><text x="135.06" y="-196.08" dominant-baseline="ideographic" fill="black" font-size="9" font-family="sans" text-anchor="middle"><tspan x="135.06" dy="9">3.3V</tspan></text><text x="32.40000000000001" y="-45.0" dominant-baseline="central" fill="#E65100" font-size="9" font-family="sans" text-anchor="end"><tspan x="32.40000000000001" dy="9">→ AC Live → 히터 (최대 2A)</tspan></text><text x="32.40000000000001" y="-44.0" dominant-baseline="central" fill="#616161" font-size="8" font-family="sans" text-anchor="end"><tspan x="32.40000000000001" dy="8">Snubber: 0.01µF + 100Ω</tspan></text><text x="54.0" y="122.4" dominant-baseline="ideographic" fill="black" font-size="9" font-family="sans" text-anchor="middle"><tspan x="54.0" dy="9">1kΩ</tspan></text><text x="122.46" y="28.919999999999995" dominant-baseline="central" fill="black" font-size="12" font-family="sans" text-anchor="end"><tspan x="122.46" dy="12">SSR #3</tspan><tspan x="122.46" dy="12">UV 조명</tspan></text><text x="135.06" y="-52.080000000000005" dominant-baseline="ideographic" fill="black" font-size="9" font-family="sans" text-anchor="middle"><tspan x="135.06" dy="9">3.3V</tspan></text><text x="32.40000000000001" y="-45.0" dominant-baseline="central" fill="#E65100" font-size="9" font-family="sans" text-anchor="end"><tspan x="32.40000000000001" dy="9">→ AC Live → UV 램프</tspan></text><text x="54.0" y="266.40000000000003" dominant-baseline="ideographic" fill="black" font-size="9" font-family="sans" text-anchor="middle"><tspan x="54.0" dy="9">100Ω</tspan></text><text x="108.0" y="268.40000000000003" dominant-baseline="ideographic" fill="black" font-size="8" font-family="sans" text-anchor="middle"><tspan x="108.0" dy="8">10kΩ</tspan><tspan x="108.0" dy="8">풀다운</tspan></text><text x="32.4" y="-45.0" dominant-baseline="central" fill="#616161" font-size="9" font-family="sans" text-anchor="end"><tspan x="32.4" dy="9">IRLZ44N</tspan></text><text x="124.99499999999999" y="222.60000000000002" dominant-baseline="hanging" fill="black" font-size="9" font-family="sans" text-anchor="middle"><tspan x="124.99499999999999" dy="9">DC LED</tspan><tspan x="124.99499999999999" dy="9">Strip</tspan></text><text x="32.4" y="-49.5" dominant-baseline="central" fill="#D32F2F" font-size="9" font-family="sans" text-anchor="end"><tspan x="32.4" dy="9">  DC 12-24V</tspan><tspan x="32.4" dy="9">  (별도 전원)</tspan></text><text x="32.40000000000001" y="-52.0" dominant-baseline="central" fill="#616161" font-size="8" font-family="sans" text-anchor="end"><tspan x="32.40000000000001" dy="8">PWM 1-5kHz 권장</tspan><tspan x="32.40000000000001" dy="8">Vgs(th) 1-2V</tspan><tspan x="32.40000000000001" dy="8">Rds(on) 22mΩ</tspan></text><circle cx="0.0" cy="-0.0" r="2.6999999999999997" style="stroke:black;fill:white;stroke-width:2.0;stroke-dasharray:-;" /><text x="-6.3" y="-13.5" dominant-baseline="central" fill="black" font-size="9" font-family="sans" text-anchor="end"><tspan x="-6.3" dy="9">ESP32</tspan><tspan x="-6.3" dy="9">GPIO3</tspan></text><circle cx="0.0" cy="144.0" r="2.6999999999999997" style="stroke:black;fill:white;stroke-width:2.0;stroke-dasharray:-;" /><text x="-6.3" y="130.5" dominant-baseline="central" fill="black" font-size="9" font-family="sans" text-anchor="end"><tspan x="-6.3" dy="9">ESP32</tspan><tspan x="-6.3" dy="9">GPIO5</tspan></text><circle cx="0.0" cy="288.0" r="2.6999999999999997" style="stroke:black;fill:white;stroke-width:2.0;stroke-dasharray:-;" /><text x="-6.3" y="270.0" dominant-baseline="central" fill="black" font-size="9" font-family="sans" text-anchor="end"><tspan x="-6.3" dy="9">ESP32</tspan><tspan x="-6.3" dy="9">GPIO10</tspan><tspan x="-6.3" dy="9">(PWM)</tspan></text><circle cx="108.0" cy="288.0" r="2.6999999999999997" style="stroke:black;fill:black;stroke-width:2.0;stroke-dasharray:-;" /></svg>