<svg xmlns="http://www.w3.org/2000/svg" xmlns:xlink="http://www.w3.org/1999/xlink" xml:lang="en" height="338.2399999999999pt" width="293.732pt" viewBox="-61.43199999999999 -52.60000000000001 293.732 338.2399999999999"><path d="M 1.6087010577773815 -15.002627857270488 C 6.98811421776806 -29.055998116863385 9.0 -36.0 36.0 -36.0" style="stroke:#D32F2F;fill:none;stroke-width:2;stroke-dasharray:-;stroke-linecap:round;" /><path d="M 0.7149782479010585 -12.667834603231327 L -0.1447001702616273 -20.49221656076288 L 6.579504401371153 -17.91829486831907 Z" style="stroke:#D32F2F;fill:#d32f2f;stroke-linecap:butt;stroke-linejoin:miter;" /><path d="M 12.165063003764558 134.7030283295546 C 16.65874281184535 12.27734642561643 17.99999999999998 -36.00000000000003 36.0 -36.0" style="stroke:#616161;fill:none;stroke-width:2;stroke-dasharray:-;stroke-linecap:round;" /><path d="M 12.073361335006457 137.20134592424648 L 8.732548671172848 130.0740062560976 L 15.92770334388544 130.33810706212094 Z" style="stroke:#616161;fill:#616161;stroke-linecap:butt;stroke-linejoin:miter;" /><path d="M 106.9349858453082 38.827844370301285 C 94.02377156446386 -14.17599408157066 89.99999999999999 -36.00000000000001 36.0 -36.00000000000001" style="stroke:#616161;fill:none;stroke-width:2;stroke-dasharray:-;stroke-linecap:round;" /><path d="M 107.52666037569253 41.2568197201339 L 102.37224718685745 35.30770006435599 L 109.3676961943754 33.60367741684914 Z" style="stroke:#616161;fill:#616161;stroke-linecap:butt;stroke-linejoin:miter;" /><path d="M 47.94258698926467 211.50036626532798 C 45.670628594077286 33.44001883136608 44.99999999999998 -36.00000000000003 36.0 -36.0" style="stroke:#616161;fill:none;stroke-width:2;stroke-dasharray:-;stroke-linecap:round;" /><path d="M 47.97448310633983 214.00016278459023 L 44.285466990791775 207.04666293924424 L 51.48488096626698 206.95480212206778 Z" style="stroke:#616161;fill:#616161;stroke-linecap:butt;stroke-linejoin:miter;" /><path d="M 36.0,-36.0 L 35.99999999999999,-0.0 L 44.99999999999999,2.9999999999999973 L 26.999999999999993,9.0 L 44.99999999999999,14.999999999999995 L 26.999999999999993,20.999999999999996 L 44.999999999999986,27.0 L 26.99999999999999,32.99999999999999 L 35.999999999999986,36.0 L 35.99999999999998,72.0" style="stroke:black;fill:none;stroke-width:2.0;stroke-dasharray:-;stroke-linecap:round;stroke-linejoin:round;" /><path d="M 35.99999999999998,72.0 L 35.99999999999997,108.0 L 44.99999999999998,110.99999999999999 L 26.99999999999997,117.0 L 44.99999999999997,123.0 L 26.999999999999968,129.0 L 44.99999999999997,135.0 L 26.999999999999968,141.0 L 35.99999999999997,144.0 L 35.99999999999996,180.0" style="stroke:black;fill:none;stroke-width:2.0;stroke-dasharray:-;stroke-linecap:round;stroke-linejoin:round;" /><path d="M 16.49999999999996,171.0 L 13.499999999999961,171.0" style="stroke:black;fill:none;stroke-width:2.0;stroke-dasharray:-;stroke-linecap:round;stroke-linejoin:round;" /><path d="M 7.499999999999961,171.0 L 4.49999999999996,171.0" style="stroke:black;fill:none;stroke-width:2.0;stroke-dasharray:-;stroke-linecap:round;stroke-linejoin:round;" /><path d="M -1.5000000000000346,171.0 L -4.50000000000004,171.0" style="stroke:black;fill:none;stroke-width:2.0;stroke-dasharray:-;stroke-linecap:round;stroke-linejoin:round;" /><path d="M 14.999999999999963,180.0 L 35.99999999999996,180.0" style="stroke:black;fill:none;stroke-width:2.0;stroke-dasharray:-;stroke-linecap:round;stroke-linejoin:round;" /><path d="M 14.999999999999963,171.0 L 14.999999999999963,180.0" style="stroke:black;fill:none;stroke-width:2.0;stroke-dasharray:-;stroke-linecap:round;stroke-linejoin:round;" /><path d="M -24.000000000000036,180.0 L -3.0000000000000373,180.0" style="stroke:black;fill:none;stroke-width:2.0;stroke-dasharray:-;stroke-linecap:round;stroke-linejoin:round;" /><path d="M -3.0000000000000373,171.0 L -3.0000000000000373,180.0" style="stroke:black;fill:none;stroke-width:2.0;stroke-dasharray:-;stroke-linecap:round;stroke-linejoin:round;" /><path d="M -6.000000000000027,149.99999999999997 L -6.000000000000035,165.0" style="stroke:black;fill:none;stroke-width:2.0;stroke-dasharray:-;stroke-linecap:round;stroke-linejoin:round;" /><path d="M -6.000000000000035,165.0 L 17.99999999999996,165.0" style="stroke:black;fill:none;stroke-width:2.0;stroke-dasharray:-;stroke-linecap:round;stroke-linejoin:round;" /><path d="M 5.999999999999963,177.0 L 5.999999999999963,180.0" style="stroke:black;fill:none;stroke-width:2.0;stroke-dasharray:-;stroke-linecap:round;stroke-linejoin:round;" /><path d="M 5.999999999999963 173.0 L 8.999999999999963 177.0 L 2.9999999999999627 177.0 Z" style="stroke:black;fill:black;stroke-linecap:butt;stroke-linejoin:miter;" /><path d="M 5.999999999999963,180.0 L -3.0000000000000373,180.0" style="stroke:black;fill:none;stroke-width:2.0;stroke-dasharray:-;stroke-linecap:round;stroke-linejoin:round;" /><path d="M -24.000000000000036,180.0 L -24.000000000000036,194.4 L -33.000000000000036,194.4 L -15.000000000000036,194.4 M -30.300000000000036,198.71999999999997 L -17.700000000000035,198.71999999999997 M -25.800000000000036,203.04 L -22.20000000000003,203.04" style="stroke:black;fill:none;stroke-width:2.0;stroke-dasharray:-;stroke-linecap:round;stroke-linejoin:round;" /><path d="M -6.000000000000027,149.99999999999997 L -6.000000000000034,185.99999999999997 L 2.9999999999999662,188.99999999999997 L -15.000000000000036,194.99999999999997 L 2.9999999999999645,200.99999999999994 L -15.000000000000037,206.99999999999997 L 2.9999999999999614,212.99999999999997 L -15.000000000000039,218.99999999999994 L -6.00000000000004,221.99999999999997 L -6.000000000000046,258.0" style="stroke:black;fill:none;stroke-width:2.0;stroke-dasharray:-;stroke-linecap:round;stroke-linejoin:round;" /><path d="M -6.000000000000046,258.0 L -6.000000000000046,272.4 L -15.000000000000046,272.4 L 2.9999999999999534,272.4 M -12.300000000000047,276.71999999999997 L 0.29999999999995297,276.71999999999997 M -7.800000000000046,281.03999999999996 L -4.200000000000046,281.03999999999996" style="stroke:black;fill:none;stroke-width:2.0;stroke-dasharray:-;stroke-linecap:round;stroke-linejoin:round;" /><path d="M -6.000000000000027,149.99999999999997 L 29.99999999999997,149.99999999999997 L 65.99999999999997,149.99999999999997" style="stroke:black;fill:none;stroke-width:2.0;stroke-dasharray:-;stroke-linecap:round;stroke-linejoin:round;" /><path d="M 35.99999999999998,72.0 L 62.999999999999986,72.0 L 89.99999999999999,72.0" style="stroke:black;fill:none;stroke-width:2.0;stroke-dasharray:-;stroke-linecap:round;stroke-linejoin:round;" /><path d="M 89.99999999999999,72.0 L 89.99999999999997,122.76 M 98.99999999999997,122.76 L 80.99999999999997,122.76 M 98.99999999999997,129.24 L 80.99999999999997,129.24 M 89.99999999999997,129.24 L 89.99999999999997,180.0" style="stroke:black;fill:none;stroke-width:2.0;stroke-dasharray:-;stroke-linecap:round;stroke-linejoin:round;" /><path d="M 89.99999999999997,180.0 L 89.99999999999997,194.4 L 80.99999999999997,194.4 L 98.99999999999997,194.4 M 83.69999999999997,198.71999999999997 L 96.29999999999995,198.71999999999997 M 88.19999999999997,203.04 L 91.79999999999995,203.04" style="stroke:black;fill:none;stroke-width:2.0;stroke-dasharray:-;stroke-linecap:round;stroke-linejoin:round;" /><path d="M 89.99999999999999,72.0 L 125.99999999999999,72.0 L 162.0,72.0" style="stroke:black;fill:none;stroke-width:2.0;stroke-dasharray:-;stroke-linecap:round;stroke-linejoin:round;" /><text x="39.6" y="-46.0" dominant-baseline="central" fill="#D32F2F" font-size="10" font-family="sans" text-anchor="start"><tspan x="39.6" dy="10">V_BATT</tspan></text><text x="35.99999999999998" y="66.60000000000001" dominant-baseline="hanging" fill="black" font-size="9" font-family="sans" text-anchor="middle"><tspan x="35.99999999999998" dy="9">R1</tspan><tspan x="35.99999999999998" dy="9">10MΩ</tspan></text><text x="35.99999999999996" y="174.6" dominant-baseline="hanging" fill="black" font-size="9" font-family="sans" text-anchor="middle"><tspan x="35.99999999999996" dy="9">R2</tspan><tspan x="35.99999999999996" dy="9">10MΩ</tspan></text><text x="39.6" y="-44.0" dominant-baseline="central" fill="#616161" font-size="8" font-family="sans" text-anchor="start"><tspan x="39.6" dy="8">BSS138</tspan></text><text x="-6.000000000000026" y="138.39999999999998" dominant-baseline="ideographic" fill="black" font-size="8" font-family="sans" text-anchor="middle"><tspan x="-6.000000000000026" dy="8">10kΩ</tspan></text><text x="89.99999999999999" y="59.39999999999999" dominant-baseline="ideographic" fill="black" font-size="9" font-family="sans" text-anchor="middle"><tspan x="89.99999999999999" dy="9">100nF</tspan></text><text x="32.4" y="-49.50000000000001" dominant-baseline="central" fill="#616161" font-size="9" font-family="sans" text-anchor="end"><tspan x="32.4" dy="9">V_BATT / 2</tspan><tspan x="32.4" dy="9">(3.7V → 1.85V)</tspan></text><text x="32.4" y="-52.0" dominant-baseline="central" fill="#616161" font-size="8" font-family="sans" text-anchor="end"><tspan x="32.4" dy="8">GPIO4 HIGH → 측정 (50ms)</tspan><tspan x="32.4" dy="8">GPIO4 LOW  → 전류 차단</tspan><tspan x="32.4" dy="8">분배기 활성시 ~0.19µA</tspan></text><circle cx="36.0" cy="-36.0" r="2.6999999999999997" style="stroke:black;fill:white;stroke-width:2.0;stroke-dasharray:-;" /><circle cx="35.99999999999998" cy="72.0" r="2.6999999999999997" style="stroke:black;fill:black;stroke-width:2.0;stroke-dasharray:-;" /><circle cx="35.99999999999996" cy="180.0" r="2.6999999999999997" style="stroke:black;fill:black;stroke-width:2.0;stroke-dasharray:-;" /><circle cx="65.99999999999997" cy="149.99999999999997" r="2.6999999999999997" style="stroke:black;fill:white;stroke-width:2.0;stroke-dasharray:-;" /><text x="72.29999999999997" y="136.49999999999997" dominant-baseline="central" fill="black" font-size="9" font-family="sans" text-anchor="start"><tspan x="72.29999999999997" dy="9">ESP32 GPIO4</tspan><tspan x="72.29999999999997" dy="9">(DIV EN)</tspan></text><circle cx="89.99999999999999" cy="72.0" r="2.6999999999999997" style="stroke:black;fill:black;stroke-width:2.0;stroke-dasharray:-;" /><circle cx="162.0" cy="72.0" r="2.6999999999999997" style="stroke:black;fill:white;stroke-width:2.0;stroke-dasharray:-;" /><text x="168.29999999999998" y="58.5" dominant-baseline="central" fill="black" font-size="9" font-family="sans" text-anchor="start"><tspan x="168.29999999999998" dy="9">ESP32 GPIO0</tspan><tspan x="168.29999999999998" dy="9">(ADC)</tspan></text></svg>